<svg width="61" height="66" viewBox="0 0 61 66" fill="none" xmlns="http://www.w3.org/2000/svg">
<path d="M57.2041 16.2421H56.5434C56.1528 14.8704 55.6072 13.5544 54.9137 12.3102L55.3833 11.8404C55.9206 11.3034 56.2163 10.587 56.2163 9.82337C56.2163 9.05969 55.9206 8.3435 55.3829 7.80579L52.2539 4.68044C51.7165 4.1398 50.9993 3.84217 50.2343 3.84217C49.4693 3.84217 48.752 4.1398 48.2173 4.67777L47.7482 5.14687C46.5031 4.45118 45.1866 3.90455 43.8158 3.51412V2.85356C43.8159 1.28013 42.5359 0 40.9623 0H36.5384C34.965 0 33.6849 1.28013 33.6849 2.85356V3.51412C32.3143 3.90442 30.997 4.45118 29.7494 5.14738L29.2824 4.68044C28.7448 4.1398 28.0276 3.84217 27.2627 3.8423C26.4977 3.8423 25.7805 4.14005 25.2459 4.6779L22.1175 7.80643C21.5801 8.3435 21.2844 9.05982 21.2844 9.82349C21.2844 10.5872 21.5801 11.3034 22.1173 11.8404L22.5868 12.31C21.8904 13.5581 21.3445 14.8744 20.9561 16.2421H20.293C18.7196 16.2421 17.4395 17.5222 17.4395 19.0957V23.5234C17.4395 25.0968 18.7196 26.377 20.293 26.377H20.9561C21.3445 27.7446 21.8904 29.0608 22.5868 30.309L22.1173 30.7786C21.58 31.3157 21.2843 32.032 21.2843 32.7957C21.2843 33.5592 21.58 34.2756 22.1172 34.8126L25.2432 37.9386C25.7805 38.4793 26.4976 38.7769 27.2626 38.7769H27.2627C28.0276 38.7769 28.745 38.4793 29.2798 37.9413L29.7492 37.4717C30.9982 38.1685 32.3155 38.7145 33.6847 39.1028V39.7656C33.6847 41.3391 34.9649 42.6192 36.5383 42.6192H40.9622C42.5357 42.6192 43.8158 41.3391 43.8158 39.7656V39.1028C45.1854 38.7144 46.5017 38.1686 47.7482 37.4722L48.2146 37.9386C48.752 38.4793 49.4692 38.7769 50.2341 38.7769C50.9992 38.7769 51.7165 38.4791 52.2507 37.9418L55.3833 34.8126C55.9205 34.2754 56.2162 33.5591 56.2162 32.7956C56.2162 32.0319 55.9205 31.3157 55.3833 30.7786L54.9136 30.3089C55.6071 29.0647 56.1526 27.7486 56.5432 26.377H57.2039C58.7774 26.377 60.0575 25.0968 60.0575 23.5234V19.0957C60.0576 17.5222 58.7776 16.2421 57.2041 16.2421ZM41.2699 39.7655C41.2699 39.9323 41.1291 40.0731 40.9623 40.0731H36.5384C36.3717 40.0731 36.2309 39.9323 36.2309 39.7655V38.1128V30.0874C36.2309 29.555 35.8996 29.0789 35.4006 28.8938C31.9798 27.6251 29.6815 24.3329 29.6815 20.7015C29.6815 17.8237 31.1145 15.1259 33.5141 13.4857C33.6218 13.4121 33.7171 13.352 33.8003 13.3027C33.7957 13.4682 33.784 13.6256 33.7778 13.7077C33.7682 13.8369 33.7606 13.9389 33.7606 14.0401V20.0482C33.7606 22.8059 35.9154 25.1091 38.666 25.2915C38.7221 25.2952 38.7784 25.2952 38.8345 25.2915C41.5832 25.1092 43.7363 22.8061 43.7363 20.0482V14.0401C43.7363 13.9394 43.7288 13.838 43.7194 13.7096C43.7133 13.6271 43.7016 13.4689 43.6971 13.3026C43.7801 13.3517 43.8748 13.4117 43.9822 13.4852C46.3824 15.1258 47.8154 17.8235 47.8154 20.7014C47.8154 24.3324 45.5184 27.6248 42.0997 28.8938C41.6008 29.079 41.2697 29.555 41.2697 30.0873V38.1126V39.7655H41.2699ZM57.5116 23.5234C57.5116 23.6872 57.3679 23.831 57.2041 23.831H55.555C54.9603 23.831 54.4447 24.2428 54.3135 24.8229C53.9103 26.6042 53.2121 28.2886 52.2381 29.8293C51.9201 30.3324 51.9932 30.9888 52.414 31.4096L53.5833 32.5789C53.6591 32.6548 53.6705 32.7472 53.6705 32.7956C53.6705 32.8438 53.6591 32.9364 53.5836 33.0117L50.4484 36.1436C50.3767 36.2156 50.2923 36.2308 50.2343 36.2308C50.1763 36.2308 50.0921 36.2156 50.0177 36.1408L48.8485 34.9715C48.427 34.5501 47.77 34.4776 47.2669 34.7963C46.1803 35.4849 45.0236 36.0313 43.8159 36.4351V30.9341C47.7653 29.0961 50.3617 25.0909 50.3617 20.7013C50.3617 16.982 48.5139 13.4985 45.4193 11.3832C44.9452 11.0592 43.5035 10.0735 42.2426 10.7993C41.0045 11.5121 41.1278 13.1832 41.1804 13.8968C41.185 13.9588 41.1895 14.0109 41.1905 14.0401V20.0482C41.1905 21.4417 40.1255 22.6099 38.7504 22.7442C37.3734 22.6098 36.3067 21.4415 36.3067 20.0482L36.3066 14.0492C36.3077 14.0109 36.3123 13.9588 36.3169 13.8966C36.37 13.1833 36.4944 11.5131 35.2573 10.7999C33.9969 10.0729 32.553 11.0589 32.0781 11.3832C28.9832 13.4986 27.1355 16.9821 27.1355 20.7014C27.1355 25.0916 29.7333 29.0971 33.6849 30.9346V36.4352C32.4769 36.0314 31.3189 35.4848 30.229 34.7958C30.0195 34.6634 29.7837 34.5989 29.5491 34.5989C29.2203 34.5989 28.8942 34.7261 28.6486 34.9718L27.4769 36.1436C27.4053 36.2157 27.3209 36.2309 27.2628 36.2309C27.2048 36.2309 27.1206 36.2157 27.0463 36.141L23.9178 33.0124C23.8418 32.9365 23.8304 32.8439 23.8304 32.7957C23.8304 32.7473 23.8418 32.6549 23.9178 32.5789L25.0869 31.4096C25.5077 30.9888 25.5808 30.3324 25.2628 29.8293C24.2839 28.2805 23.5858 26.5968 23.1879 24.825C23.0576 24.2439 22.5415 23.8308 21.9459 23.8308H20.2933C20.1294 23.8308 19.9857 23.6871 19.9857 23.5233V19.0955C19.9857 18.9288 20.1265 18.788 20.2933 18.788H21.9459C22.5415 18.788 23.0575 18.3749 23.1879 17.7938C23.5858 16.022 24.2837 14.3382 25.2628 12.7895C25.5808 12.2864 25.5077 11.63 25.0869 11.2092L23.9176 10.0399C23.8418 9.96403 23.8304 9.87161 23.8304 9.82324C23.8304 9.77487 23.8418 9.68245 23.9178 9.60645L27.049 6.47512C27.1206 6.40307 27.2049 6.38792 27.2629 6.38792C27.321 6.38792 27.4053 6.40307 27.4796 6.47779L28.6487 7.64705C29.0698 8.06803 29.7262 8.14097 30.2292 7.82297C31.776 6.84505 33.4616 6.14554 35.2386 5.74416C35.819 5.61304 36.2311 5.09735 36.2311 4.50248V2.85356C36.2311 2.6868 36.3719 2.546 36.5387 2.546H40.9626C41.1294 2.546 41.2702 2.6868 41.2702 2.85356V4.50273C41.2702 5.09773 41.6822 5.6133 42.2626 5.74442C44.0412 6.14618 45.7249 6.84531 47.2671 7.82259C47.7704 8.14135 48.4272 8.06879 48.8487 7.64743L50.0205 6.4755C50.0922 6.40345 50.1766 6.3883 50.2345 6.3883C50.2926 6.3883 50.3768 6.40345 50.4517 6.47868L53.5835 9.60683C53.6594 9.6827 53.6707 9.77512 53.6707 9.82349C53.6707 9.87187 53.6594 9.96429 53.5834 10.0403L52.4143 11.2095C51.9934 11.6304 51.9203 12.2868 52.2383 12.7898C53.2122 14.3306 53.9106 16.0149 54.3137 17.7963C54.445 18.3764 54.9605 18.7882 55.5553 18.7882H57.2043C57.3711 18.7882 57.5119 18.929 57.5119 19.0958V23.5234H57.5116Z" fill="white"/>
<path d="M46.1682 56.0529C45.6711 56.55 45.6711 57.3561 46.1682 57.8533C46.4169 58.1018 46.7426 58.2262 47.0684 58.2262C47.3942 58.2262 47.7199 58.1018 47.9686 57.8533L47.9721 57.8498C48.4693 57.3527 48.4675 56.5484 47.9702 56.0512C47.473 55.5541 46.6654 55.556 46.1682 56.0529Z" fill="white"/>
<path d="M52.0652 43.7212L41.9588 48.9113C41.102 48.024 39.9016 47.4705 38.5737 47.4705H31.6491C31.2613 47.4705 31.1666 47.4397 31.1603 47.4376C31.1041 47.408 30.9267 47.2413 30.7842 47.1073L30.7211 47.048C25.1189 41.7744 20.3865 42.1085 15.0049 44.2324C14.1341 44.5761 14.1173 44.5769 13.2429 44.6142L11.6771 44.6153C11.2311 43.2696 9.96162 42.2958 8.46826 42.2958H3.37676C1.51474 42.2958 0 43.8123 0 45.6762V59.0388C0 60.9007 1.51474 62.4156 3.37676 62.4156H8.46826C9.96149 62.4156 11.2308 61.4429 11.677 60.0988H14.5412C14.7942 60.0988 14.7942 60.0988 15.0884 60.1817C15.1953 60.2119 15.3254 60.2485 15.4934 60.2937L28.6682 63.8184C29.249 63.9752 29.7816 64.1297 30.2968 64.2789C31.9848 64.7679 33.4037 65.1791 34.8825 65.1791C36.554 65.1791 38.3017 64.6539 40.6003 63.1219C40.6114 63.1146 40.6225 63.1069 40.6334 63.0992L43.1486 61.3056C43.7211 60.8974 43.8543 60.1025 43.446 59.53C43.0378 58.9575 42.2426 58.8244 41.6705 59.2327L39.172 61.0142C35.8363 63.233 34.4198 62.8228 31.0053 61.8334C30.4793 61.681 29.9355 61.5234 29.3294 61.3597L16.1536 57.8349C15.9993 57.7934 15.8783 57.7593 15.779 57.7313C15.2983 57.5959 15.1185 57.5531 14.5414 57.5531H11.8487V47.1623H13.2244C13.2428 47.1623 13.2609 47.162 13.2792 47.1612L13.3517 47.1581C14.4189 47.1126 14.7174 47.0834 15.9398 46.6008C20.6663 44.7356 24.3147 44.514 28.9777 48.9037L29.0407 48.9629C29.8376 49.7118 30.2965 50.0168 31.6492 50.0168H38.5738C39.3865 50.0168 40.0952 50.4679 40.4646 51.1326C40.4686 51.14 40.4732 51.147 40.4772 51.1543C40.6422 51.4595 40.7362 51.8085 40.7362 52.1792C40.7362 53.3696 39.7663 54.338 38.574 54.338H27.3516C26.6486 54.338 26.0786 54.9079 26.0786 55.611C26.0786 56.3141 26.6486 56.884 27.3516 56.884H38.574C41.1701 56.884 43.2822 54.7735 43.2822 52.1792C43.2822 51.8266 43.2419 51.4834 43.1681 51.1528L53.2284 45.9863C54.1806 45.4975 55.4826 45.55 56.129 46.5989C56.7009 47.5235 56.3863 48.7524 55.3978 49.4572L50.9847 52.6002C50.412 53.0081 50.2783 53.8029 50.6862 54.3757C50.9346 54.7243 51.3264 54.9103 51.7242 54.9103C51.9797 54.9103 52.2376 54.8336 52.4615 54.6742L56.8751 51.5308C58.9713 50.0364 59.5813 47.3404 58.2953 45.2615C57.0307 43.2092 54.3526 42.5469 52.0652 43.7212ZM9.30258 59.0388C9.30258 59.4892 8.92056 59.8696 8.46826 59.8696H3.37676C2.92637 59.8696 2.546 59.4891 2.546 59.0388V45.6764C2.546 45.2163 2.91874 44.8419 3.37676 44.8419H8.46826C8.92056 44.8419 9.30258 45.2239 9.30258 45.6764V59.0388Z" fill="white"/>
</svg>
