<svg width="51" height="52" viewBox="0 0 51 52" fill="none" xmlns="http://www.w3.org/2000/svg">
<path d="M49.7704 4.04638H44.7125C44.1537 4.04638 43.7009 4.49927 43.7009 5.05797V5.56377H40.6661C40.2857 5.56377 39.9547 5.77398 39.7819 6.08433C30.6144 6.44365 23.2667 14.0126 23.2667 23.2667V24.2783H22.7609C22.2022 24.2783 21.7493 24.7311 21.7493 25.2899V29.3362C21.7493 29.8949 22.2022 30.3478 22.7609 30.3478H23.2667V34.0907C23.2667 35.0355 22.8984 35.9237 22.2298 36.5944C21.5601 37.2621 20.6709 37.6313 19.7261 37.6313C18.7813 37.6313 17.8921 37.2621 17.2224 36.5944C16.5537 35.9237 16.1855 35.0355 16.1855 34.0907V30.3478H16.6913C17.25 30.3478 17.7029 29.8949 17.7029 29.3362V25.2899C17.7029 24.7311 17.25 24.2783 16.6913 24.2783H16.1855V10.9911C16.4876 10.8161 16.6913 10.4901 16.6913 10.1159V7.08116H17.1971C17.7558 7.08116 18.2087 6.62827 18.2087 6.06956V1.01159C18.2087 0.452891 17.7558 0 17.1971 0H1.01159C0.452891 0 0 0.452891 0 1.01159V6.06956C0 6.62827 0.452891 7.08116 1.01159 7.08116H1.51739V10.1159C1.51739 10.4901 1.72113 10.8162 2.02319 10.9911V24.2783H1.51739C0.958688 24.2783 0.505797 24.7311 0.505797 25.2899V29.3362C0.505797 29.8949 0.958688 30.3478 1.51739 30.3478H2.02319V34.0907C2.02319 36.4811 2.49156 38.7987 3.41413 40.9817C3.85822 42.0307 4.40751 43.0423 5.04684 43.9882C5.6801 44.9259 6.40744 45.807 7.20862 46.6082C8.0098 47.4094 8.8909 48.1367 9.82865 48.77C10.7745 49.4093 11.7861 49.9586 12.8351 50.4027C15.0181 51.3252 17.3352 51.7936 19.7256 51.7936L19.7261 51.7886V51.7926V51.7936C21.0412 51.7936 22.2869 51.656 23.5292 51.3839C24.737 51.1189 25.9209 50.7254 27.0478 50.2125C28.1535 49.7097 29.2127 49.0886 30.195 48.3684C31.1691 47.6521 32.0736 46.8348 32.8819 45.9365C33.2551 45.5217 33.2218 44.8814 32.8071 44.5081C32.621 44.3402 32.3812 44.2481 32.1303 44.2481C31.8441 44.2481 31.57 44.3695 31.3787 44.582C28.4066 47.8787 24.1599 49.7704 19.7261 49.7704C15.5391 49.7704 11.602 48.1387 8.63901 45.1778C5.67808 42.2148 4.04638 38.2777 4.04638 34.0907V30.3478H14.1623V34.0907C14.1623 34.8423 14.31 35.5707 14.5993 36.2565C14.8795 36.9191 15.2811 37.514 15.792 38.0248C16.3028 38.5357 16.8977 38.9363 17.5603 39.2175C18.2461 39.5068 18.9745 39.6545 19.7261 39.6545C20.4777 39.6545 21.206 39.5068 21.8919 39.2175C22.5545 38.9363 23.1493 38.5357 23.6602 38.0248C24.171 37.514 24.5726 36.9191 24.8528 36.2565C25.1422 35.5707 25.2898 34.8423 25.2898 34.0907V30.3478H35.4058V34.0907C35.4058 35.075 35.3137 36.0603 35.1327 37.0203C35.0821 37.2863 35.1387 37.5554 35.2915 37.778C35.4432 38.0015 35.6739 38.1523 35.9389 38.2018C36.0016 38.214 36.0653 38.22 36.1281 38.22C36.6126 38.22 37.0304 37.8731 37.1204 37.3956C37.3248 36.3132 37.429 35.2014 37.429 34.0907V30.3478H37.9348C38.4935 30.3478 38.9464 29.8949 38.9464 29.3362V25.2899C38.9464 24.7311 38.4935 24.2783 37.9348 24.2783H37.429V23.469C37.429 21.9626 38.4631 20.6934 39.8587 20.3338C40.0433 20.5788 40.3358 20.7377 40.6661 20.7377H43.7009V21.2435C43.7009 21.8022 44.1537 22.2551 44.7125 22.2551H49.7704C50.3291 22.2551 50.782 21.8022 50.782 21.2435V5.05797C50.782 4.49927 50.3291 4.04638 49.7704 4.04638ZM15.6797 28.3246H2.52898V26.3014H15.6797V28.3246ZM14.1623 11.1275V24.2783H4.04638V11.1275H14.1623ZM7.58695 9.10435V7.08116H10.6217V9.10435H7.58695ZM12.6449 9.10435V7.08116H14.6681V9.10435H12.6449ZM5.56377 9.10435H3.54058V7.08116H5.56377V9.10435ZM2.02319 5.05797V2.02319H16.1855V5.05797H2.02319ZM36.9232 28.3246H23.7725V26.3014H36.9232V28.3246ZM39.6545 18.3063C37.2363 18.7792 35.4058 20.9144 35.4058 23.469V24.2783H25.2898V23.2667C25.2898 15.1715 31.6626 8.53644 39.6545 8.1141V18.3063ZM43.7009 18.7145H41.6777V16.6913H43.7009V18.7145ZM43.7009 14.6681H41.6777V11.6333H43.7009V14.6681ZM43.7009 9.61014H41.6777V7.58696H43.7009V9.61014ZM48.7588 20.2319H45.724V6.06956H48.7588V20.2319Z" fill="white"/>
<path d="M10.1628 40.6388C9.97461 40.3596 9.66101 40.1937 9.32415 40.1937C9.12183 40.1937 8.92659 40.2534 8.75867 40.3667C8.53511 40.5184 8.38337 40.7481 8.33178 41.0131C8.28019 41.2782 8.33582 41.5472 8.48655 41.7718C10.3145 44.4768 13.0488 46.4332 16.1868 47.2799C16.2738 47.3032 16.3628 47.3153 16.4508 47.3153C16.9071 47.3153 17.3087 47.0078 17.427 46.5668C17.5727 46.0286 17.253 45.4722 16.7138 45.3266C14.0453 44.6073 11.7186 42.9422 10.1628 40.6388Z" fill="white"/>
<path d="M29.1118 16.7732C28.8376 17.2601 29.01 17.8769 29.4969 18.151C29.6538 18.2394 29.8243 18.2814 29.9923 18.2814C30.3457 18.2814 30.6889 18.0959 30.8747 17.766C30.9775 17.5835 31.0869 17.4013 31.2 17.2245C32.2542 15.5766 33.7254 14.2258 35.4545 13.3179C35.9491 13.0583 36.1396 12.4466 35.88 11.9521C35.6202 11.4574 35.0085 11.267 34.5141 11.5266C32.4743 12.5976 30.739 14.1908 29.4958 16.1342C29.3623 16.3429 29.2331 16.5579 29.1118 16.7732Z" fill="white"/>
<path d="M34.682 42.5204C35.2407 42.5204 35.6936 42.0675 35.6936 41.5088C35.6936 40.9501 35.2407 40.4972 34.682 40.4972C34.1233 40.4972 33.6704 40.9501 33.6704 41.5088C33.6704 42.0675 34.1233 42.5204 34.682 42.5204Z" fill="white"/>
</svg>
